<mxfile host="app.diagrams.net" modified="2023-05-04T11:02:20.793Z" agent="Mozilla/5.0 (Windows NT 10.0; Win64; x64) AppleWebKit/537.36 (KHTML, like Gecko) Chrome/112.0.0.0 Safari/537.36" etag="qtQ1Ed4gqGAtR5qlWJSG" version="21.2.7" type="github">
  <diagram name="Página-1" id="QxnHx__wZrE5UsQH2TkZ">
    <mxGraphModel dx="1050" dy="581" grid="1" gridSize="10" guides="1" tooltips="1" connect="1" arrows="1" fold="1" page="1" pageScale="1" pageWidth="827" pageHeight="1169" math="0" shadow="0">
      <root>
        <mxCell id="0" />
        <mxCell id="1" parent="0" />
        <mxCell id="VymSgot9QLsFwOsiQC4_-1" value="" style="rounded=0;whiteSpace=wrap;html=1;" parent="1" vertex="1">
          <mxGeometry x="194" y="40" width="566" height="520" as="geometry" />
        </mxCell>
        <mxCell id="VymSgot9QLsFwOsiQC4_-39" style="edgeStyle=orthogonalEdgeStyle;rounded=0;orthogonalLoop=1;jettySize=auto;html=1;entryX=0.5;entryY=0.5;entryDx=0;entryDy=0;entryPerimeter=0;endArrow=block;endFill=0;" parent="1" source="VymSgot9QLsFwOsiQC4_-7" target="VymSgot9QLsFwOsiQC4_-9" edge="1">
          <mxGeometry relative="1" as="geometry" />
        </mxCell>
        <mxCell id="VymSgot9QLsFwOsiQC4_-7" value="Casa de Santo" style="shape=umlActor;verticalLabelPosition=bottom;verticalAlign=top;html=1;" parent="1" vertex="1">
          <mxGeometry x="80" y="280" width="30" height="60" as="geometry" />
        </mxCell>
        <mxCell id="ooHY6HaIlFsEALtteVTs-1" style="rounded=0;orthogonalLoop=1;jettySize=auto;html=1;endArrow=none;endFill=0;" edge="1" parent="1" source="VymSgot9QLsFwOsiQC4_-9" target="VymSgot9QLsFwOsiQC4_-14">
          <mxGeometry relative="1" as="geometry" />
        </mxCell>
        <mxCell id="ooHY6HaIlFsEALtteVTs-2" style="rounded=0;orthogonalLoop=1;jettySize=auto;html=1;endArrow=none;endFill=0;" edge="1" parent="1" source="VymSgot9QLsFwOsiQC4_-9" target="VymSgot9QLsFwOsiQC4_-40">
          <mxGeometry relative="1" as="geometry" />
        </mxCell>
        <mxCell id="ooHY6HaIlFsEALtteVTs-3" style="rounded=0;orthogonalLoop=1;jettySize=auto;html=1;endArrow=none;endFill=0;" edge="1" parent="1" source="VymSgot9QLsFwOsiQC4_-9" target="VymSgot9QLsFwOsiQC4_-31">
          <mxGeometry relative="1" as="geometry" />
        </mxCell>
        <mxCell id="ooHY6HaIlFsEALtteVTs-4" style="rounded=0;orthogonalLoop=1;jettySize=auto;html=1;endArrow=none;endFill=0;" edge="1" parent="1" source="VymSgot9QLsFwOsiQC4_-9" target="VymSgot9QLsFwOsiQC4_-41">
          <mxGeometry relative="1" as="geometry" />
        </mxCell>
        <mxCell id="ooHY6HaIlFsEALtteVTs-5" style="rounded=0;orthogonalLoop=1;jettySize=auto;html=1;endArrow=none;endFill=0;" edge="1" parent="1" source="VymSgot9QLsFwOsiQC4_-9" target="VymSgot9QLsFwOsiQC4_-49">
          <mxGeometry relative="1" as="geometry" />
        </mxCell>
        <mxCell id="ooHY6HaIlFsEALtteVTs-6" style="rounded=0;orthogonalLoop=1;jettySize=auto;html=1;endArrow=none;endFill=0;" edge="1" parent="1" source="VymSgot9QLsFwOsiQC4_-9" target="VymSgot9QLsFwOsiQC4_-60">
          <mxGeometry relative="1" as="geometry" />
        </mxCell>
        <mxCell id="ooHY6HaIlFsEALtteVTs-7" style="rounded=0;orthogonalLoop=1;jettySize=auto;html=1;endArrow=none;endFill=0;" edge="1" parent="1" source="VymSgot9QLsFwOsiQC4_-9" target="VymSgot9QLsFwOsiQC4_-16">
          <mxGeometry relative="1" as="geometry" />
        </mxCell>
        <mxCell id="ooHY6HaIlFsEALtteVTs-8" style="rounded=0;orthogonalLoop=1;jettySize=auto;html=1;endArrow=none;endFill=0;" edge="1" parent="1" source="VymSgot9QLsFwOsiQC4_-9" target="VymSgot9QLsFwOsiQC4_-53">
          <mxGeometry relative="1" as="geometry" />
        </mxCell>
        <mxCell id="ooHY6HaIlFsEALtteVTs-9" style="rounded=0;orthogonalLoop=1;jettySize=auto;html=1;endArrow=none;endFill=0;" edge="1" parent="1" source="VymSgot9QLsFwOsiQC4_-9" target="VymSgot9QLsFwOsiQC4_-28">
          <mxGeometry relative="1" as="geometry" />
        </mxCell>
        <mxCell id="ooHY6HaIlFsEALtteVTs-10" style="rounded=0;orthogonalLoop=1;jettySize=auto;html=1;endArrow=none;endFill=0;" edge="1" parent="1" source="VymSgot9QLsFwOsiQC4_-9" target="VymSgot9QLsFwOsiQC4_-42">
          <mxGeometry relative="1" as="geometry" />
        </mxCell>
        <mxCell id="ooHY6HaIlFsEALtteVTs-11" style="rounded=0;orthogonalLoop=1;jettySize=auto;html=1;endArrow=none;endFill=0;" edge="1" parent="1" source="VymSgot9QLsFwOsiQC4_-9" target="VymSgot9QLsFwOsiQC4_-52">
          <mxGeometry relative="1" as="geometry" />
        </mxCell>
        <mxCell id="ooHY6HaIlFsEALtteVTs-12" style="rounded=0;orthogonalLoop=1;jettySize=auto;html=1;entryX=0.5;entryY=0;entryDx=0;entryDy=0;endArrow=none;endFill=0;" edge="1" parent="1" source="VymSgot9QLsFwOsiQC4_-9" target="VymSgot9QLsFwOsiQC4_-23">
          <mxGeometry relative="1" as="geometry" />
        </mxCell>
        <mxCell id="ooHY6HaIlFsEALtteVTs-13" style="rounded=0;orthogonalLoop=1;jettySize=auto;html=1;endArrow=none;endFill=0;" edge="1" parent="1" source="VymSgot9QLsFwOsiQC4_-9" target="VymSgot9QLsFwOsiQC4_-15">
          <mxGeometry relative="1" as="geometry" />
        </mxCell>
        <mxCell id="VymSgot9QLsFwOsiQC4_-9" value="Babá/Yá" style="shape=umlActor;verticalLabelPosition=bottom;verticalAlign=top;html=1;" parent="1" vertex="1">
          <mxGeometry x="150" y="280" width="30" height="60" as="geometry" />
        </mxCell>
        <mxCell id="VymSgot9QLsFwOsiQC4_-14" value="Pesquisa endereço de casa de Santo" style="ellipse;whiteSpace=wrap;html=1;" parent="1" vertex="1">
          <mxGeometry x="200" y="94.5" width="120" height="55.5" as="geometry" />
        </mxCell>
        <mxCell id="VymSgot9QLsFwOsiQC4_-15" value="Pesquisa endereço Babá/Yá de Santo" style="ellipse;whiteSpace=wrap;html=1;" parent="1" vertex="1">
          <mxGeometry x="200" y="450" width="116" height="50" as="geometry" />
        </mxCell>
        <mxCell id="VymSgot9QLsFwOsiQC4_-16" value="Enxergará dados da casa, fotos, quantidade de filhos, clientes e infos.&amp;nbsp;" style="ellipse;whiteSpace=wrap;html=1;" parent="1" vertex="1">
          <mxGeometry x="542" y="246" width="215" height="78" as="geometry" />
        </mxCell>
        <mxCell id="VymSgot9QLsFwOsiQC4_-17" value="Aplicativo Saravá" style="text;align=center;fontStyle=1;verticalAlign=middle;spacingLeft=3;spacingRight=3;strokeColor=none;rotatable=0;points=[[0,0.5],[1,0.5]];portConstraint=eastwest;html=1;" parent="1" vertex="1">
          <mxGeometry x="420.5" y="50" width="113" height="26" as="geometry" />
        </mxCell>
        <mxCell id="VymSgot9QLsFwOsiQC4_-23" value="Poderá se vincular a casa como filho(a) de Santo" style="ellipse;whiteSpace=wrap;html=1;" parent="1" vertex="1">
          <mxGeometry x="280" y="485" width="158.5" height="65" as="geometry" />
        </mxCell>
        <mxCell id="VymSgot9QLsFwOsiQC4_-28" value="Poderá postar fotos, vídeos e textos no mural da Casa de Santo" style="ellipse;whiteSpace=wrap;html=1;" parent="1" vertex="1">
          <mxGeometry x="556" y="400" width="200" height="70" as="geometry" />
        </mxCell>
        <mxCell id="VymSgot9QLsFwOsiQC4_-31" value="Criará as datas de obrigações" style="ellipse;whiteSpace=wrap;html=1;" parent="1" vertex="1">
          <mxGeometry x="414" y="72.75" width="126" height="47.25" as="geometry" />
        </mxCell>
        <mxCell id="VymSgot9QLsFwOsiQC4_-40" value="Falará por Chat" style="ellipse;whiteSpace=wrap;html=1;" parent="1" vertex="1">
          <mxGeometry x="318.5" y="80" width="93" height="40" as="geometry" />
        </mxCell>
        <mxCell id="VymSgot9QLsFwOsiQC4_-41" value="Aceitará atendimento" style="ellipse;whiteSpace=wrap;html=1;" parent="1" vertex="1">
          <mxGeometry x="540" y="90" width="101" height="40" as="geometry" />
        </mxCell>
        <mxCell id="VymSgot9QLsFwOsiQC4_-42" value="Poderá se vincular a casa como Babá/Yá de Santo" style="ellipse;whiteSpace=wrap;html=1;" parent="1" vertex="1">
          <mxGeometry x="595" y="475" width="150" height="75" as="geometry" />
        </mxCell>
        <mxCell id="VymSgot9QLsFwOsiQC4_-49" value="Dará cargo ao filho(a) de Santo na Casa" style="ellipse;whiteSpace=wrap;html=1;" parent="1" vertex="1">
          <mxGeometry x="609" y="120" width="146" height="50" as="geometry" />
        </mxCell>
        <mxCell id="VymSgot9QLsFwOsiQC4_-52" value="Autorizará vinculo de clientes a Casa de Santo" style="ellipse;whiteSpace=wrap;html=1;" parent="1" vertex="1">
          <mxGeometry x="440" y="490" width="150" height="60" as="geometry" />
        </mxCell>
        <mxCell id="VymSgot9QLsFwOsiQC4_-53" value="Autorizará vinculo de filhos de Santo a Casa." style="ellipse;whiteSpace=wrap;html=1;" parent="1" vertex="1">
          <mxGeometry x="610" y="330" width="145" height="65" as="geometry" />
        </mxCell>
        <mxCell id="VymSgot9QLsFwOsiQC4_-60" value="Deletará vinculo de filhos de Santo e Cliente da Casa." style="ellipse;whiteSpace=wrap;html=1;" parent="1" vertex="1">
          <mxGeometry x="595" y="173" width="160" height="70" as="geometry" />
        </mxCell>
      </root>
    </mxGraphModel>
  </diagram>
</mxfile>
